# xmcd
#
# Track frame offsets:
#	182
#	28412
#	61965
#	87752
#	111362
#	145775
#	172485
#	202970
#	228382
#	254020
#	281400
#	310555
#
# Disc length: 4515 seconds
#
# Revision: 2
# Processed by: cddbd v1.5.2PL0 Copyright (c) Steve Scherf et al.
# Submitted via: audiograbber 1.83.01
#
DISCID=ae11a10c
DTITLE=Various Artist - Kniteforce Records Presents "Vinyl is Better"
DYEAR=1994
DGENRE=Electronic
TTITLE0=Cru-L-T - Timz Change
TTITLE1=DJ Ham - Green Eggs and ....
TTITLE2=Future Primitive - Swift Half
TTITLE3=Force and Evolution - Escape
TTITLE4=Jimmy J and Cru-L-T - Can't You See
TTITLE5=Alk-E-D - Burn Baby Burn
TTITLE6=DJ Ham - Most Uplifting
TTITLE7=Poosie and Cru-L-T - Knite In Paradise (Sublove Remix)
TTITLE8=Force and Evolution - High On Life
TTITLE9=Future Primitive - We're Flying (Vibes and Wishdokta Remix)
TTITLE10=Cru-L-T - Sky High
TTITLE11=Adrian H and The Criminal - A Little Tap On The Shoulder
EXTD=YEAR: 1994
EXTT0=
EXTT1=
EXTT2=
EXTT3=
EXTT4=
EXTT5=
EXTT6=
EXTT7=
EXTT8=
EXTT9=
EXTT10=
EXTT11=
PLAYORDER=
